# xmcd
#
# Track frame offsets:
#	150
#	11992
#	22317
#	31950
#	43117
#	56360
#	71312
#	84897
#	95225
#	107940
#	119835
#	129452
#	141860
#	153507
#
# Disc length: 2205
#
# Revision: 1
# Processed by: cddbd v1.5.1PL0 Copyright (c) Steve Scherf et al.
# Submitted via: AltoMP3_Maker 3.0
# Normalized: r0:DSETVAR1
#
DISCID=c8089b0e
DTITLE=Various Artist - Country Ladies CD2
DYEAR=1900
DGENRE=
TTITLE0=Tammy Wynette - Stand by Your Man
TTITLE1=Dolly Parton - Release Me
TTITLE2=Loretta Lynn - You  Ain't Woman Enough
TTITLE3=Kitty Wells - Heartbreak USA
TTITLE4=Donna Fargo - Daddy
TTITLE5=Melba Montgomery - No Charge
TTITLE6=Barbara Mandrell - Try To Remember
TTITLE7=Billie Jo Spears - It Makes No Difference Now
TTITLE8=Norma Jean - Cold, Cold Heart
TTITLE9=Marie O'Brien - Love's Gonna Live Here
TTITLE10=Anne Murray - Some Birds
TTITLE11=Lynn Anderson - Listen to A Country Song
TTITLE12=Patsy Cline - In Care Of The Blues
TTITLE13=Wanda Jackson - Right Or Wrong
EXTD=
EXTT0=
EXTT1=
EXTT2=
EXTT3=
EXTT4=
EXTT5=
EXTT6=
EXTT7=
EXTT8=
EXTT9=
EXTT10=
EXTT11=
EXTT12=
EXTT13=
PLAYORDER=
